# xmcd CD database file
#
# Track frame offsets:
#	150
#	20383
#	40308
#	60478
#
# Disc length: 1070 seconds
#
# Revision: 0
# Processed by: cddbd v1.5PL3 Copyright (c) Steve Scherf et al.
# Submitted via: CDex 1.50beta9
#
DISCID=29042c04
DTITLE=永井龍雲 - 飛鳥
DYEAR=1994
DGENRE=J-POP
TTITLE0=飛鳥
TTITLE1=実らぬ恋
TTITLE2=飛鳥　カラオケ
TTITLE3=実らぬ恋　カラオケ
EXTD=YEAR: 1994
EXTT0=
EXTT1=
EXTT2=
EXTT3=
PLAYORDER=
